<?xml version="1.0" encoding="UTF-8"?>
<!DOCTYPE svg PUBLIC "-//W3C//DTD SVG 1.1//EN" "http://www.w3.org/Graphics/SVG/1.1/DTD/svg11.dtd">
<svg xmlns="http://www.w3.org/2000/svg" version="1.1" width="512px" height="512px" style="shape-rendering:geometricPrecision; text-rendering:geometricPrecision; image-rendering:optimizeQuality; fill-rule:evenodd; clip-rule:evenodd" xmlns:xlink="http://www.w3.org/1999/xlink">
<g><path style="opacity:0.933" fill="#000000" d="M 225.5,-0.5 C 238.167,-0.5 250.833,-0.5 263.5,-0.5C 270.004,1.83077 274.838,6.16411 278,12.5C 279.289,28.7667 279.956,45.1001 280,61.5C 308.095,82.1215 316.762,109.121 306,142.5C 294.084,168.629 273.751,182.295 245,183.5C 207.582,181.082 185.582,161.415 179,124.5C 177.465,97.9066 187.465,76.9066 209,61.5C 209.061,45.4467 209.728,29.4467 211,13.5C 213.871,6.67458 218.704,2.00791 225.5,-0.5 Z M 232.5,14.5 C 240.507,14.3336 248.507,14.5003 256.5,15C 258.676,15.1629 260.509,15.9963 262,17.5C 263.626,29.7373 263.959,42.0706 263,54.5C 250.671,50.5006 238.338,50.5006 226,54.5C 225.333,42.8333 225.333,31.1667 226,19.5C 227.603,16.9649 229.769,15.2982 232.5,14.5 Z M 238.5,67.5 C 259.731,66.6983 276.231,75.0317 288,92.5C 300.763,120.532 294.597,143.365 269.5,161C 249.444,170.908 230.444,169.241 212.5,156C 192.307,135.677 189.474,113.177 204,88.5C 212.811,77.0144 224.311,70.0144 238.5,67.5 Z M 240.5,106.5 C 249.136,105.482 254.47,109.149 256.5,117.5C 254.123,127.853 248.123,131.02 238.5,127C 231.391,119.376 232.058,112.543 240.5,106.5 Z"/></g>
<g><path style="opacity:0.928" fill="#000000" d="M 237.5,90.5 C 253.93,87.9558 265.097,94.2892 271,109.5C 274.397,126.209 268.23,137.709 252.5,144C 235.327,147.498 223.827,140.998 218,124.5C 215.488,107.844 221.988,96.5108 237.5,90.5 Z M 240.5,106.5 C 232.058,112.543 231.391,119.376 238.5,127C 248.123,131.02 254.123,127.853 256.5,117.5C 254.47,109.149 249.136,105.482 240.5,106.5 Z"/></g>
<g><path style="opacity:0.929" fill="#000000" d="M 417.5,511.5 C 414.833,511.5 412.167,511.5 409.5,511.5C 408.828,510.733 407.995,510.066 407,509.5C 374.167,443.833 341.333,378.167 308.5,312.5C 266.833,311.167 225.167,311.167 183.5,312.5C 160,359.5 136.5,406.5 113,453.5C 109.149,457.842 104.315,460.176 98.5,460.5C 95.412,465.675 92.5787,471.008 90,476.5C 84.4375,483.192 77.2709,486.525 68.5,486.5C 64.5659,495.381 59.8992,503.714 54.5,511.5C 51.8333,511.5 49.1667,511.5 46.5,511.5C 44.2607,509.523 42.9274,507.023 42.5,504C 45.6101,495.444 49.2767,487.111 53.5,479C 48.8267,471.842 47.3267,464.008 49,455.5C 51.6362,450.394 54.1362,445.228 56.5,440C 53.7954,434.79 52.962,429.29 54,423.5C 72.1005,386.132 90.6005,348.966 109.5,312C 101.833,311.667 94.1667,311.333 86.5,311C 71.6559,305.142 66.8226,294.642 72,279.5C 75.7053,273.066 81.2053,269.233 88.5,268C 102.833,267.667 117.167,267.333 131.5,267C 146.628,237.244 161.628,207.411 176.5,177.5C 180.667,173.583 184.833,173.583 189,177.5C 190.457,180.366 190.79,183.366 190,186.5C 149.127,267.244 109.127,348.244 70,429.5C 79.896,435.124 89.896,439.791 100,443.5C 140.609,361.949 181.442,280.616 222.5,199.5C 231.079,196.593 235.245,199.593 235,208.5C 225.772,227.956 216.272,247.29 206.5,266.5C 233.16,267.667 259.827,267.833 286.5,267C 276.539,247.578 266.705,228.078 257,208.5C 255.541,202.074 258.041,198.408 264.5,197.5C 267.111,197.556 269.278,198.556 271,200.5C 315.605,289.376 359.938,378.376 404,467.5C 408.709,459.298 410.043,450.631 408,441.5C 391.913,386.003 371.913,332.003 348,279.5C 332.333,247.5 316.667,215.5 301,183.5C 299.517,177.135 302.017,173.469 308.5,172.5C 310.857,173.095 313.023,174.095 315,175.5C 330.667,205.833 345.501,236.5 359.5,267.5C 374.883,267.082 390.216,267.582 405.5,269C 418.609,275.987 422.443,286.487 417,300.5C 413.713,306.067 408.879,309.567 402.5,311C 394.833,311.333 387.167,311.667 379.5,312C 389.781,336.839 399.281,362.006 408,387.5C 409.419,386.54 410.919,385.707 412.5,385C 404.803,373.53 404.637,362.03 412,350.5C 423.71,340.2 435.71,339.866 448,349.5C 455.721,362.276 462.388,375.609 468,389.5C 469,410.166 459.166,419.666 438.5,418C 429.117,414.952 422.617,408.785 419,399.5C 417.333,400.5 415.667,401.5 414,402.5C 416.691,414.586 420.024,426.586 424,438.5C 427.139,455.445 423.306,470.611 412.5,484C 415.781,490.561 418.781,497.227 421.5,504C 421.073,507.023 419.739,509.523 417.5,511.5 Z M 90.5,283.5 C 101.505,283.333 112.505,283.5 123.5,284C 121.5,287.667 119.5,291.333 117.5,295C 108.167,295.667 98.8333,295.667 89.5,295C 84.2283,290.701 84.5617,286.868 90.5,283.5 Z M 197.5,283.5 C 229.835,283.333 262.168,283.5 294.5,284C 296.5,287.667 298.5,291.333 300.5,295C 264.495,295.833 228.495,295.667 192.5,294.5C 194.453,290.931 196.119,287.264 197.5,283.5 Z M 367.5,284.5 C 377.658,283.341 387.992,283.175 398.5,284C 404.717,287.186 405.05,290.853 399.5,295C 390.482,295.832 381.482,295.665 372.5,294.5C 370.787,291.075 369.121,287.741 367.5,284.5 Z M 428.5,358.5 C 432.548,358.441 435.715,360.108 438,363.5C 442.349,372.198 446.682,380.864 451,389.5C 453.735,394.851 452.568,399.017 447.5,402C 443.82,403.027 440.653,402.194 438,399.5C 433,389.5 428,379.5 423,369.5C 421.968,364.374 423.801,360.707 428.5,358.5 Z M 70.5,448.5 C 74.9532,449.892 78.9532,452.059 82.5,455C 80.803,458.894 78.9697,462.727 77,466.5C 73.9738,469.864 70.4738,470.364 66.5,468C 65.0203,466.701 64.3536,465.034 64.5,463C 65.8074,457.885 67.8074,453.051 70.5,448.5 Z"/></g>
</svg>
